<svg xmlns="http://www.w3.org/2000/svg" viewBox="79 185.32 281.06 204.36"><rect height="100%" width="100%" x="79" y="185.32" fill="#ffffff"/> <svg xmlns="http://www.w3.org/2000/svg" xmlns:xlink="http://www.w3.org/1999/xlink" version="1.1" id="Layer_1" x="149" y="255" viewBox="0 0 119.3499984741211 97.24105072021484" xml:space="preserve" height="64" width="78" preserveAspectRatio="xMinYMin" enable-background="new 0 0 118.62 99.77" style="overflow: visible;"><path class="st2" d="M33.04,53.07v26.88c-0.4-0.01-0.81-0.02-1.21-0.05c-5.68-0.34-11.57-2.1-17.54-5.76V53.07H33.04z" style="fill: #1F7FCF;"></path><path class="st2" d="M59.67,17.59v53.58c-0.4,0.27-0.8,0.53-1.21,0.79c-5.38,3.44-11.29,6.13-17.54,7.33v-61.7H59.67z" style="fill: #1F7FCF;"></path><path class="st2" d="M86.58,0v37.83l-3.01,0.67l-3.95,0.88l6.66,4.75c-0.27,0.39-0.59,0.83-0.92,1.3  c-3.26,4.53-9.41,12.38-17.54,19.45V0H86.58z" style="fill: #1F7FCF;"></path><path class="st3" d="M115.86,31.28c0,0-14.21,22.07-18.98,27.77c-3.12,3.74-6.57,7.49-10.3,11.05  c-5.66,5.41-11.96,10.39-18.75,14.22c-9.92,5.58-20.9,8.71-32.46,7.12c-10.88-1.5-20.1-7.39-27.36-15.49  C4.91,72.48,2.74,68.9,0,64.77c4.77,5.77,9.55,10.08,14.28,13.17c6.38,4.18,12.69,6.16,18.75,6.52c2.69,0.16,5.32,0.01,7.89-0.4  c6.7-1.07,13.02-3.88,18.75-7.54c2.87-1.84,5.61-3.89,8.15-6.03c8.72-7.33,15.33-15.74,18.75-20.5c1.68-2.34,2.59-3.8,2.59-3.8  l-2.59-1.86l-6.95-4.97l6.95-1.55L115.86,31.28z" style="fill: #072A80;"></path><path class="st0" d="M86.58,44.34V50c-3.42,4.75-10.03,13.16-18.75,20.5v-5.62c8.12-7.06,14.28-14.92,17.54-19.45  c0.34-0.47,0.65-0.91,0.92-1.3L86.58,44.34z" style="fill: #0A6AB9;"></path><path class="st0" d="M59.67,71.17v5.36c-5.72,3.66-12.05,6.48-18.75,7.54v-4.78c6.26-1.2,12.16-3.89,17.54-7.33  C58.87,71.7,59.27,71.43,59.67,71.17z" style="fill: #0A6AB9;"></path><path class="st0" d="M33.04,79.95v4.52c-6.07-0.37-12.37-2.34-18.75-6.52v-3.8c5.97,3.66,11.86,5.41,17.54,5.76  C32.23,79.92,32.64,79.94,33.04,79.95z" style="fill: #0A6AB9;"></path><path class="st0" d="M118.04,35.27c0,0-33.58,69.38-89.72,57.18c0,0,44.46,22.62,82.53-30.44l8.5,6.35L118.04,35.27z" style="fill: #0A6AB9;"></path></svg> <svg y="276" viewBox="2.4800000190734863 6.5 51.060001373291016 21.329999923706055" x="238" height="21" width="51" style="overflow: visible;"><g fill="#072A80" fill-opacity="1" style=""><path d="M10.31 19.48L5.29 19.48L5.29 27.83L2.48 27.83L2.48 6.50L10.34 6.50Q13.84 6.50 15.83 8.29Q17.81 10.08 17.81 13.02L17.81 13.02Q17.81 16.13 15.87 17.81Q13.93 19.48 10.31 19.48L10.31 19.48ZM5.29 8.82L5.29 17.18L10.34 17.18Q12.60 17.18 13.80 16.12Q15 15.06 15 13.05L15 13.05Q15 11.15 13.80 10.00Q12.60 8.86 10.50 8.82L10.50 8.82L5.29 8.82ZM29.24 19.48L24.21 19.48L24.21 27.83L21.40 27.83L21.40 6.50L29.27 6.50Q32.77 6.50 34.75 8.29Q36.74 10.08 36.74 13.02L36.74 13.02Q36.74 16.13 34.80 17.81Q32.86 19.48 29.24 19.48L29.24 19.48ZM24.21 8.82L24.21 17.18L29.27 17.18Q31.52 17.18 32.72 16.12Q33.93 15.06 33.93 13.05L33.93 13.05Q33.93 11.15 32.72 10.00Q31.52 8.86 29.43 8.82L29.43 8.82L24.21 8.82ZM52.09 16.11L52.09 18.41L43.14 18.41L43.14 27.83L40.33 27.83L40.33 6.50L53.54 6.50L53.54 8.82L43.14 8.82L43.14 16.11L52.09 16.11Z" transform="translate(0, 0)"></path></g></svg></svg>